<svg width="42" height="42" viewBox="0 0 42 42" fill="none" xmlns="http://www.w3.org/2000/svg">
<g id="Confetti">
<path id="Vector" opacity="0.2" d="M16.7999 32.5499L9.44991 25.2L6.21788 34.1085C6.12853 34.3423 6.10876 34.5969 6.16096 34.8417C6.21316 35.0864 6.33511 35.3108 6.51206 35.4878C6.68902 35.6648 6.91343 35.7867 7.15818 35.8389C7.40293 35.8911 7.65756 35.8713 7.89132 35.782L16.7999 32.5499Z" fill="#F8D57E"/>
<path id="Vector_2" opacity="0.2" d="M32.6123 24.8424L32.6126 24.8426C32.7608 24.9895 32.8694 25.1716 32.9285 25.3717C32.9875 25.5719 32.995 25.7838 32.9502 25.9877C32.9054 26.1915 32.8098 26.3807 32.6723 26.5377C32.5348 26.6948 32.3598 26.8145 32.1637 26.8858L25.4815 29.3141L12.6859 16.5185L15.1143 9.83633C15.1855 9.64017 15.3053 9.46521 15.4623 9.32771C15.6193 9.19021 15.8085 9.09463 16.0124 9.04984C16.2162 9.00505 16.4281 9.01252 16.6283 9.07155C16.8285 9.13057 17.0105 9.23924 17.1574 9.38745L17.1577 9.38768L32.6123 24.8424Z" fill="#F8D57E" stroke="#F8D57E" stroke-width="0.148438"/>
<path id="Vector_3" d="M6.21788 34.1086L15.0444 9.81098C15.12 9.60306 15.2469 9.41762 15.4133 9.27188C15.5797 9.12613 15.7803 9.02482 15.9964 8.97735C16.2124 8.92988 16.437 8.93779 16.6492 9.00036C16.8614 9.06292 17.0543 9.1781 17.2101 9.3352L32.6648 24.7899C32.8219 24.9456 32.937 25.1386 32.9996 25.3508C33.0622 25.563 33.0701 25.7875 33.0226 26.0036C32.9751 26.2196 32.8738 26.4202 32.7281 26.5866C32.5823 26.7531 32.3969 26.8799 32.189 26.9555L7.89132 35.7821C7.65756 35.8714 7.40293 35.8912 7.15818 35.839C6.91343 35.7868 6.68902 35.6648 6.51206 35.4879C6.33511 35.3109 6.21316 35.0865 6.16096 34.8418C6.10876 34.597 6.12853 34.3424 6.21788 34.1086V34.1086Z" stroke="#F8D57E" stroke-width="2.375" stroke-linecap="round" stroke-linejoin="round"/>
<path id="Vector_4" d="M27.5625 11.8123C27.5625 11.8123 27.5625 7.87476 31.5 7.87476C35.4375 7.87476 35.4375 3.93726 35.4375 3.93726" stroke="#F8D57E" stroke-width="2.375" stroke-linecap="round" stroke-linejoin="round"/>
<path id="Vector_5" d="M16.8 32.5499L9.44995 25.2" stroke="#F8D57E" stroke-width="2.375" stroke-linecap="round" stroke-linejoin="round"/>
<path id="Vector_6" d="M23.625 2.625V6.5625" stroke="#F8D57E" stroke-width="2.375" stroke-linecap="round" stroke-linejoin="round"/>
<path id="Vector_7" d="M35.4376 18.375L38.0626 21" stroke="#F8D57E" stroke-width="2.375" stroke-linecap="round" stroke-linejoin="round"/>
<path id="Vector_8" d="M35.4376 13.125L39.3751 11.8125" stroke="#F8D57E" stroke-width="2.375" stroke-linecap="round" stroke-linejoin="round"/>
<path id="Vector_9" d="M12.6 16.5374L25.4625 29.3999" stroke="#F8D57E" stroke-width="2.375" stroke-linecap="round" stroke-linejoin="round"/>
</g>
</svg>
